<?xml version="1.0" standalone="no"?>
<!DOCTYPE svg PUBLIC "-//W3C//DTD SVG 20010904//EN"
 "http://www.w3.org/TR/2001/REC-SVG-20010904/DTD/svg10.dtd">
<svg version="1.0" xmlns="http://www.w3.org/2000/svg"
 width="1280.000000pt" height="1267.000000pt" viewBox="0 0 1280.000000 1267.000000"
 preserveAspectRatio="xMidYMid meet">
<g transform="translate(0.000000,1267.000000) scale(0.100000,-0.100000)"
fill="#000000" stroke="none">
<path d="M6311 12649 c-123 -32 -131 -49 -100 -217 26 -142 21 -202 -23 -291
-87 -180 -348 -340 -779 -480 -165 -53 -294 -88 -579 -156 -762 -181 -1392
-423 -1945 -746 -1001 -584 -1650 -1358 -1893 -2258 l-36 -133 -101 -50 c-264
-133 -471 -317 -628 -559 -102 -157 -164 -324 -202 -546 -27 -153 -31 -233
-15 -310 5 -26 17 -88 26 -138 52 -288 178 -521 403 -745 137 -137 256 -223
420 -305 106 -52 289 -116 400 -139 40 -8 77 -18 81 -23 6 -6 1942 -4930 2117
-5384 l45 -116 796 -7 c439 -3 1499 -11 2357 -16 858 -5 1867 -15 2243 -21
376 -6 685 -9 688 -7 2 3 476 1276 1053 2829 l1048 2824 94 35 c388 146 689
411 863 758 65 130 102 245 131 415 27 157 31 237 15 314 -5 26 -17 89 -26
138 -62 344 -258 653 -561 887 -56 43 -104 86 -107 96 -3 9 -16 64 -30 122
-176 745 -675 1451 -1421 2010 -656 491 -1453 847 -2372 1060 -98 22 -183 46
-189 53 -6 7 -17 41 -24 76 -79 420 -483 804 -1006 956 -128 37 -207 53 -383
75 -190 24 -264 24 -360 -1z"/>
</g>
</svg>
