<?xml version="1.0" standalone="no"?>
<!DOCTYPE svg PUBLIC "-//W3C//DTD SVG 20010904//EN"
 "http://www.w3.org/TR/2001/REC-SVG-20010904/DTD/svg10.dtd">
<svg version="1.0" xmlns="http://www.w3.org/2000/svg"
 width="1280.000000pt" height="1042.000000pt" viewBox="0 0 1280.000000 1042.000000"
 preserveAspectRatio="xMidYMid meet">
<metadata>
Created by potrace 1.15, written by Peter Selinger 2001-2017
</metadata>
<g transform="translate(0.000000,1042.000000) scale(0.100000,-0.100000)"
fill="#000000" stroke="none">
<path d="M11711 10353 c-65 -67 -90 -78 -296 -138 -269 -78 -423 -137 -562
-217 l-72 -41 0 -156 c2 -456 -93 -925 -281 -1402 -96 -241 -169 -375 -255
-469 -22 -25 -149 -189 -282 -366 -584 -776 -837 -1053 -1233 -1346 -559 -413
-1288 -750 -2000 -923 -364 -88 -836 -133 -1280 -122 -674 18 -1308 115 -2095
322 -543 143 -766 195 -1165 274 -768 151 -1364 227 -1570 202 -96 -12 -92
-10 -226 -159 -65 -73 -84 -101 -84 -123 0 -30 32 -103 49 -114 5 -3 -12 -27
-37 -53 -51 -51 -71 -98 -79 -192 -4 -48 0 -66 35 -146 138 -312 325 -623 536
-888 272 -344 631 -685 935 -888 42 -28 77 -52 79 -54 2 -1 -20 -46 -49 -101
-61 -113 -61 -126 1 -195 33 -38 37 -48 26 -57 -32 -27 -56 -100 -56 -168 1
-89 16 -127 81 -210 239 -304 479 -540 779 -767 371 -280 711 -467 1165 -641
110 -42 165 -68 105 -50 -68 21 -356 -28 -435 -74 -62 -36 -43 -71 53 -99 158
-46 222 -56 517 -82 924 -81 2581 -92 3670 -25 44 3 121 7 170 10 260 16 609
68 686 103 69 32 75 65 16 94 -65 32 -129 49 -267 68 -47 6 -99 15 -115 19
-20 5 -58 1 -109 -11 -97 -23 -111 -18 -19 7 38 10 170 51 295 92 1146 373
2084 992 3082 2031 381 397 584 659 790 1016 382 662 609 1516 583 2186 -8
189 -25 295 -73 431 -92 265 -194 473 -566 1157 -181 333 -332 631 -359 709
-38 111 -60 276 -66 495 -7 246 7 443 45 618 21 103 26 152 27 280 0 110 -4
164 -14 188 -7 17 -16 32 -20 31 -3 0 -30 -25 -60 -56z m-6648 -9460 c-7 -2
-19 -2 -25 0 -7 3 -2 5 12 5 14 0 19 -2 13 -5z m115 -10 c-10 -2 -26 -2 -35 0
-10 3 -2 5 17 5 19 0 27 -2 18 -5z m515 -10 c-62 -2 -165 -2 -230 0 -65 1 -14
3 112 3 127 0 180 -2 118 -3z"/>
</g>
</svg>
