<?xml version="1.0" standalone="no"?>
<!DOCTYPE svg PUBLIC "-//W3C//DTD SVG 20010904//EN"
 "http://www.w3.org/TR/2001/REC-SVG-20010904/DTD/svg10.dtd">
<svg version="1.0" xmlns="http://www.w3.org/2000/svg"
 width="1280.000000pt" height="896.000000pt" viewBox="0 0 1280.000000 896.000000"
 preserveAspectRatio="xMidYMid meet">
<g transform="translate(0.000000,896.000000) scale(0.100000,-0.100000)"
fill="#000000" stroke="none">
<path d="M6757 8935 c-101 -19 -183 -48 -285 -98 -123 -62 -138 -78 -163 -172
-38 -150 -36 -318 8 -555 4 -25 -1 -28 -99 -64 -153 -56 -316 -136 -431 -212
-128 -84 -178 -124 -297 -240 l-95 -93 -150 -25 c-82 -15 -226 -43 -319 -63
l-168 -37 -117 -74 c-195 -125 -439 -320 -467 -375 -19 -35 -42 -135 -50 -210
l-7 -69 -141 -106 c-217 -162 -339 -265 -485 -407 -233 -227 -403 -449 -510
-668 -46 -95 -181 -427 -181 -446 0 -4 -9 -16 -19 -25 -28 -25 -91 -6 -147 46
-34 31 -376 527 -437 635 -4 6 -19 51 -33 100 -69 239 -229 484 -489 752 -137
141 -443 419 -485 441 -14 7 -45 30 -70 51 l-45 38 -80 -10 c-376 -44 -459
-59 -596 -109 -114 -42 -210 -101 -289 -179 -55 -55 -71 -77 -88 -130 -26 -77
-27 -101 -4 -161 l18 -45 154 0 c180 -1 249 -15 379 -77 148 -70 249 -192 334
-403 16 -38 58 -182 93 -319 35 -137 82 -295 104 -350 30 -77 44 -135 60 -246
66 -461 152 -813 271 -1113 55 -137 97 -218 208 -400 128 -211 231 -346 376
-496 273 -281 558 -460 945 -593 192 -66 509 -130 705 -144 l96 -7 112 -70
c168 -104 357 -216 495 -292 l122 -67 84 -112 c201 -267 510 -520 731 -599
889 -317 2061 -343 2957 -66 220 67 506 305 707 586 72 101 73 102 176 157
303 160 419 233 530 333 124 112 325 315 410 414 55 65 62 69 333 209 751 387
886 461 1087 598 266 181 391 315 610 652 266 409 425 790 491 1175 24 139 24
436 1 562 -40 212 -127 428 -236 580 -179 252 -440 424 -724 478 -102 19 -292
19 -396 0 -260 -50 -539 -207 -765 -431 -93 -92 -211 -229 -266 -309 -30 -44
-32 -51 -22 -78 7 -17 10 -32 8 -34 -2 -2 -62 61 -134 139 -71 79 -187 195
-258 258 -203 183 -184 158 -184 238 0 42 -8 96 -20 135 -51 165 -248 382
-505 554 -43 29 -92 49 -170 71 -111 31 -286 74 -359 87 -29 5 -58 23 -110 72
-208 190 -509 372 -866 523 -69 29 -128 55 -132 59 -4 3 2 56 12 116 31 178
26 349 -15 490 -14 48 -19 53 -93 97 -199 119 -427 168 -615 133z m4868 -2650
c107 -27 216 -88 304 -170 102 -96 141 -156 208 -319 85 -205 98 -259 97 -411
-1 -253 -86 -493 -268 -759 -193 -282 -510 -595 -891 -879 -141 -105 -380
-267 -395 -267 -16 0 -12 20 19 106 38 103 86 302 105 429 44 298 21 643 -60
924 -22 74 -25 104 -25 221 2 231 34 447 91 614 91 270 257 436 505 507 77 22
231 24 310 4z"/>
</g>
</svg>
